<svg width="40" height="40" viewBox="0 0 40 40" fill="none" xmlns="http://www.w3.org/2000/svg">
<path fill-rule="evenodd" clip-rule="evenodd" d="M20 0C31.0457 0 40 8.95431 40 20C40 31.0457 31.0457 40 20 40C8.95431 40 0 31.0457 0 20C0 8.95431 8.95431 0 20 0ZM9.46511 11.0831C11.5807 10.5333 20.0099 10.5333 20.0099 10.5333C20.0099 10.5333 28.4558 10.5334 30.5714 11.1164C31.7208 11.4163 32.6369 12.3323 32.9367 13.4818C33.5198 15.5974 33.5031 19.9953 33.5031 19.9953C33.5031 19.9953 33.5031 24.3765 32.9367 26.4755C32.6369 27.6416 31.7208 28.541 30.5714 28.8576C28.4558 29.4073 20.0099 29.4073 20.0099 29.4073C20.0099 29.4073 11.5974 29.4073 9.46511 28.8409C8.31568 28.5244 7.39959 27.6083 7.08308 26.4589C6.53335 24.3765 6.53334 19.9786 6.53334 19.9786C6.53334 19.9786 6.53335 15.5974 7.08308 13.4818C7.39959 12.3323 8.33234 11.3996 9.46511 11.0831ZM24.3411 19.9786L17.3279 15.9307V24.0099L24.3411 19.9786Z" fill="#F7F7F7"/>
</svg>
